<?xml version="1.0" encoding="utf-8"?>
<!-- Generator: Adobe Illustrator 26.2.1, SVG Export Plug-In . SVG Version: 6.00 Build 0)  -->
<svg version="1.1" id="Layer_1" xmlns="http://www.w3.org/2000/svg" xmlns:xlink="http://www.w3.org/1999/xlink" x="0px" y="0px"
	 viewBox="0 0 100 100" style="enable-background:new 0 0 100 100;" xml:space="preserve">
<style type="text/css">
	.st0{fill:#4DA8DA;}
	.st1{fill:#FFFFFF;}
</style>
<g>
	<circle class="st0" cx="49.7" cy="50.1" r="50"/>
</g>
<g>
	<path class="st1" d="M82.4,19.6L70.3,37.8c3.6,4.9,5.8,10.9,5.8,17.4c0,16.2-13.2,29.3-29.3,29.3S17.6,71.4,17.6,55.2
		C17.6,39.1,30.8,26,46.9,26c6.6,0,12.7,2.2,17.6,5.9l10.7-16.3L82.4,19.6z M66,44.4L48.4,70.9h-2.6L30.4,49.3l6.2-5.5L47,58.4
		L60.4,38c-3.7-2.9-8.3-4.6-13.5-4.6C34.6,33.4,25,42.9,25,55.2S34.6,77,46.9,77s21.9-9.5,21.9-21.9C68.8,51.2,67.8,47.6,66,44.4z"
		/>
</g>
</svg>
