<?xml version="1.0" encoding="utf-8"?>
<!-- Generator: Adobe Illustrator 26.2.1, SVG Export Plug-In . SVG Version: 6.00 Build 0)  -->
<svg version="1.1" id="Layer_1" xmlns="http://www.w3.org/2000/svg" xmlns:xlink="http://www.w3.org/1999/xlink" x="0px" y="0px"
	 viewBox="0 0 100 100" style="enable-background:new 0 0 100 100;" xml:space="preserve">
<style type="text/css">
	.st0{fill:#4DA8DA;}
	.st1{fill:#FFFFFF;}
</style>
<g>
	<circle class="st0" cx="50" cy="50" r="50"/>
</g>
<g>
	<path class="st1" d="M46.1,37.5c-4.2-5.1-9.4-6.9-15.4-4.2c-5.1,2.3-7.3,6.7-7,12.4c-0.9,0.2-1.8,0.4-2.6,0.5
		c-6.1,1.4-10.1,6.9-9.5,13c0.6,6.3,5.6,11,11.9,11.1c5.8,0.1,11.6,0,17.4,0c0.7,0,1.5,0.1,2.3,0.1c0,1.2,0,2.2,0,3.4
		c-3.7,0-7.2,0-10.7,0c-3.8-0.1-7.6,0.1-11.3-0.4c-7-0.9-12.5-6.9-13.1-13.8c-0.6-7.1,3.5-13.7,10.2-16.1c1.2-0.4,2-0.9,2.3-2.3
		C23,30.6,33.4,25.7,43.2,30.5c0.3,0.2,0.7,0.3,1.2,0.6c2.9-6.3,7.6-10.5,14.2-12.2c4.9-1.3,9.7-0.7,14.3,1.5
		c9.5,4.6,13,15.4,11.2,21.7c-0.9,0-1.9,0-3.1,0c0.7-6.2-0.9-11.6-5.5-15.8c-3-2.8-6.7-4.3-10.8-4.5C55.6,21.1,49.2,26.5,46.1,37.5z
		"/>
	<path class="st1" d="M70.7,46.7c3.4-0.5,3.4-0.5,4.5,2.5c1.4,4.1,2.8,8.2,4.4,13c0.8-2.4,1.5-4.2,2.2-6.1c0.8-2.4,1.7-4.8,2.4-7.3
		c0.6-2.1,1.8-2.8,4-2.1c0,5.9,0,11.9,0,18.1c-0.6,0-1.2,0.1-2.1,0.1c0-4.8,0-9.4,0-14c-0.2,0-0.3-0.1-0.5-0.1
		c-1.2,3.6-2.5,7.2-3.7,10.7c-0.2,0.7-0.4,1.5-0.8,2.1c-0.4,0.5-1,1.2-1.5,1.2s-1.3-0.7-1.5-1.2c-1.5-4-2.8-8.1-4.2-12.2
		c-0.1-0.3-0.3-0.6-0.8-0.9c0,4.7,0,9.3,0,14.2c-0.8,0.1-1.5,0.2-2.3,0.2C70.7,58.8,70.7,52.8,70.7,46.7z"/>
	<path class="st1" d="M54.5,57c0,1.3,0,2.6,0,3.9c0,1.3,0,2.5,0,3.9c-0.9,0-1.5,0-2.3,0c0-6,0-12,0-18c3.8,0,7.6-0.2,11.3,0.1
		c2,0.1,3,1.9,3.3,3.8c0.3,2-0.3,3.7-2.1,4.8c-0.7,0.4-1.5,0.7-2.1,0.9c1.9,2.6,3.8,5.3,5.8,8.1c-2.1,0.7-3.3,0.3-4.2-1.5
		c-0.5-1-1.3-1.9-1.8-2.9C60.7,57.1,58.2,56,54.5,57z M54.6,54.4c2.5,0,4.8,0.1,7.1,0c1.6-0.1,2.6-1.2,2.6-2.9s-1-2.8-2.5-2.9
		c-2.3-0.2-4.7-0.1-7.2-0.1C54.6,50.6,54.6,52.4,54.6,54.4z"/>
	<path class="st1" d="M47.9,52c-0.7-0.4-1.7-0.7-2.1-1.4c-2.3-3.4-7.4-3.4-9.4,0.1c-1.8,3.2-1.8,6.6,0,9.7c2,3.6,7.6,3.4,9.5-0.2
		c0.3-0.5,0.5-1.1,0.8-1.8c0.7,0.2,1.4,0.3,2.1,0.5c-0.7,5.9-7.6,7.7-12,5c-3.7-2.2-4.3-6-3.9-9.9c0.3-3.8,2.2-6.5,6-7.7
		c4.5-1.4,8.7,0.8,9.6,4.8C48.2,51.6,48,51.8,47.9,52z"/>
</g>
</svg>
