<?xml version="1.0" encoding="utf-8"?>
<!-- Generator: Adobe Illustrator 26.2.1, SVG Export Plug-In . SVG Version: 6.00 Build 0)  -->
<svg version="1.1" id="Layer_1" xmlns="http://www.w3.org/2000/svg" xmlns:xlink="http://www.w3.org/1999/xlink" x="0px" y="0px"
	 viewBox="0 0 100 100" style="enable-background:new 0 0 100 100;" xml:space="preserve">
<style type="text/css">
	.st0{fill:#4DA8DA;}
	.st1{fill:none;stroke:#FFFFFF;stroke-width:3;stroke-miterlimit:10;}
	.st2{fill:#FFFFFF;stroke:#FFFFFF;stroke-width:0.4748;stroke-miterlimit:10;}
	.st3{fill:#FFFFFF;stroke:#FFFFFF;stroke-width:0.6647;stroke-miterlimit:10;}
	.st4{fill:#FFFFFF;stroke:#FFFFFF;stroke-width:0.8606;stroke-miterlimit:10;}
	.st5{fill:#FFFFFF;stroke:#FFFFFF;stroke-width:1.3761;stroke-linejoin:round;stroke-miterlimit:10;}
</style>
<g>
	<circle class="st0" cx="49.7" cy="50.1" r="50"/>
</g>
<g>
	<line class="st1" x1="39.4" y1="60.1" x2="32.3" y2="53.1"/>
	<path class="st2" d="M29.3,50.2c0,0,4.9,0,5.9,0c-0.1,0.1-0.1,0.1-0.1,0.1L29.4,56v-6"/>
</g>
<rect x="15" y="22.5" class="st3" width="21" height="21"/>
<circle class="st4" cx="75.4" cy="33" r="10.9"/>
<g>
	<line class="st1" x1="43.3" y1="33.1" x2="53.3" y2="33.1"/>
	<path class="st2" d="M57.5,33c0,0-3.5,3.5-4.2,4.2c0-0.1,0-0.1,0-0.1V29l4.3,4.3"/>
</g>
<path class="st5" d="M45.5,69.6c-2.9,5-5.7,9.9-5.7,9.9H63L51.4,59.4C50.5,60.9,48,65.3,45.5,69.6z"/>
<g>
	<line class="st1" x1="71.3" y1="49.8" x2="64.2" y2="56.9"/>
	<path class="st2" d="M61.2,59.7c0,0,4.9,0,5.9,0C67,59.6,67,59.6,67,59.6l-5.7-5.7v6"/>
</g>
</svg>
