<?xml version="1.0" encoding="utf-8"?>
<!-- Generator: Adobe Illustrator 26.2.1, SVG Export Plug-In . SVG Version: 6.00 Build 0)  -->
<svg version="1.1" id="Layer_1" xmlns="http://www.w3.org/2000/svg" xmlns:xlink="http://www.w3.org/1999/xlink" x="0px" y="0px"
	 viewBox="0 0 100 100" style="enable-background:new 0 0 100 100;" xml:space="preserve">
<style type="text/css">
	.st0{fill:#4DA8DA;}
	.st1{fill:#FFFFFF;}
</style>
<g>
	<circle class="st0" cx="49.7" cy="50.1" r="50"/>
</g>
<g>
	<path class="st1" d="M36.1,24.5c-1.3,1-2.6,1.9-3.9,2.9c0.6,1.1,1.1,2.1,1.7,3.1c1,1.8,0.9,3.5-0.3,5.1c-1.2,1.7-2.7,2.6-4.9,2.2
		c-1.2-0.2-2.3-0.4-3.6-0.7c-0.5,1.5-1,3-1.5,4.6c1,0.5,2,0.9,2.9,1.4c2,0.9,2.9,2.5,2.9,4.7s-0.9,3.7-2.9,4.6
		c-0.9,0.4-1.9,0.9-2.9,1.3c0.4,1.4,0.9,2.8,1.4,4.1c0.1,0.2,0.6,0.4,0.9,0.4c0.9-0.1,1.8-0.3,2.7-0.5c2-0.4,3.6,0.2,4.8,1.9
		c1.3,1.7,1.6,3.5,0.6,5.4c-0.6,1-1.1,2-1.8,3.1c1.4,1,2.7,1.9,4,2.9c0.3,0.2,0.3,0.8,0.5,1.2c-0.4-0.1-0.9,0-1.2-0.2
		c-1.4-0.9-2.7-2-4.1-2.9c-0.6-0.4-0.8-0.9-0.4-1.5c0.6-1,1.2-2.1,1.8-3.2c0.8-1.4,0.5-2.8-0.4-4c-0.9-1.2-2-1.8-3.6-1.4
		c-1.2,0.3-2.4,0.5-3.6,0.7c-0.7,0.1-1.1,0-1.3-0.7c-0.5-1.7-1.1-3.3-1.6-5c-0.2-0.6,0-1,0.6-1.3c1-0.4,1.9-0.9,2.9-1.3
		c1.6-0.7,2.4-1.9,2.3-3.7c0-1.7-0.7-2.9-2.3-3.6c-1-0.4-1.9-0.9-2.9-1.3c-0.7-0.3-0.8-0.7-0.6-1.4c0.6-1.7,1.1-3.3,1.6-5
		c0.2-0.6,0.6-0.8,1.2-0.7c1.1,0.3,2.2,0.4,3.4,0.7c1.6,0.3,2.8,0,3.8-1.4c1-1.4,1.3-2.7,0.4-4.2c-0.6-1-1.1-2-1.7-3
		c-0.4-0.6-0.3-1.1,0.3-1.5c1.4-1,2.8-2,4.2-3c0.6-0.4,1-0.4,1.5,0.2c0.8,0.9,1.7,1.8,2.5,2.7c1.2,1.3,2.5,1.4,4.1,0.8
		c1.4-0.5,2.2-1.5,2.4-3c0.1-1.2,0.3-2.3,0.4-3.5c0.1-0.7,0.4-1,1.1-1c1.8,0,3.5,0,5.3,0c0.7,0,1,0.4,1.1,1.1
		c0.1,1.2,0.3,2.5,0.4,3.7c0.2,1.5,1.1,2.3,2.5,2.8s2.7,0.4,3.8-0.7c0.8-0.9,1.7-1.8,2.5-2.7c0.6-0.7,1.1-0.7,1.8-0.2
		c1.3,1,2.6,1.9,3.9,2.8c0.7,0.5,0.8,0.9,0.4,1.6c-0.6,1-1.2,2.1-1.7,3.1c-0.8,1.4-0.6,2.7,0.4,4c0.9,1.3,2.1,1.8,3.7,1.5
		c1.2-0.2,2.3-0.4,3.5-0.7c0.8-0.2,1.1,0,1.4,0.8c0.5,1.6,1,3.2,1.5,4.8c0.3,0.8,0.1,1.2-0.7,1.5c-1.1,0.4-2.1,1-3.2,1.5
		c-1.4,0.7-1.9,1.9-1.9,3.4s0.4,2.7,1.9,3.4c1.1,0.5,2.1,1,3.2,1.5c0.7,0.3,1,0.7,0.7,1.5c-0.5,1.6-1.1,3.2-1.5,4.8
		c-0.2,0.8-0.7,1-1.5,0.8c-1.2-0.3-2.4-0.5-3.6-0.7c-1.4-0.3-2.4,0.2-3.3,1.3c-1,1.2-1.4,2.5-0.7,3.9c0.6,1.2,1.3,2.3,1.9,3.5
		c0.4,0.6,0.3,1-0.3,1.4c-1.4,1-2.8,2-4.2,3c-0.3,0.2-0.8,0.1-1.2,0.2c0.2-0.4,0.2-0.9,0.5-1.2c1.2-1,2.6-1.9,3.9-2.9
		c-0.6-1-1.1-2-1.7-3c-1.1-2-0.9-3.8,0.5-5.5c1.3-1.7,2.9-2.4,5-1.9c0.2,0,0.4,0.1,0.6,0.1c2.7,0.5,2.7,0.5,3.6-2.2
		c0.6-1.9,0.6-1.9-1.2-2.8c-0.4-0.2-0.9-0.4-1.3-0.6c-1.9-1-2.7-2.6-2.6-4.7c0-2,0.8-3.5,2.7-4.4c1-0.5,2-0.9,3.1-1.5
		c-0.5-1.5-1-3-1.5-4.6c-1,0.2-2,0.4-3,0.6c-2.2,0.5-4,0-5.3-1.9c-1.4-1.9-1.5-3.8-0.3-5.7c0.5-0.9,1-1.8,1.5-2.7
		c-1.3-1-2.6-1.9-3.9-2.9c-0.8,0.8-1.6,1.7-2.3,2.5c-1.4,1.5-3.1,2-5.1,1.4c-2.1-0.6-3.4-1.8-3.6-4c-0.1-1.1-0.3-2.3-0.4-3.5
		c-1.6,0-3.2,0-4.9,0c-0.2,1.2-0.3,2.4-0.5,3.6c-0.3,1.8-1.3,3-3,3.7c-1.9,0.7-3.7,0.7-5.2-0.8C37.9,26.5,37.1,25.5,36.1,24.5z"/>
	<path class="st1" d="M58.9,65.6c1.1-0.1,1.2,0.6,1.2,1.4c0,2.9,0,5.7,0,8.6c0,1-0.4,1.3-1.4,1.3c-5.8,0-11.6,0-17.4,0
		c-1,0-1.4-0.3-1.4-1.4c0.1-2.8,0-5.6,0-8.5c0-0.8,0.1-1.5,1.1-1.4c0-1.8-0.4-3.3-1.3-4.7c-0.6-1.1-1.4-2.1-2.2-3
		c-7.7-9.6-2.3-23.9,9.9-25.8c6.4-1,12.9,2,16.2,7.7s2.9,12.9-1.2,18c-1.5,1.8-2.9,3.6-3.4,6C59,64.3,59,64.9,58.9,65.6z M57.6,65.6
		c0.2-3.5,2-6.2,4-8.8c4.9-6.3,3.8-15.4-2.4-20.4S44,32.2,38.8,38.3c-4.7,5.4-4.7,13.3-0.2,18.9c1.6,1.9,3,3.9,3.5,6.5
		c0.1,0.6,0.2,1.3,0.3,1.9c1.6,0,3.2,0,4.9,0c-0.4-1.9-0.9-3.6-1.3-5.4c-0.6-3-1.1-6-1.5-9c0-0.3,0.4-0.7,0.6-1
		c0.2,0.3,0.6,0.6,0.6,0.9c0.5,2.9,1,5.8,1.6,8.8c0.4,2,0.9,3.9,1.4,5.8c1,0,1.8,0,2.9,0c0.9-4.6,1.8-9.2,2.7-13.7
		c0.1-0.6-0.4-1.8,0.7-1.7c1,0.1,0.6,1.3,0.5,1.9c-0.5,2.9-1.1,5.8-1.7,8.7c-0.3,1.6-0.7,3.1-1.1,4.8C54.4,65.6,55.9,65.6,57.6,65.6
		z M58.7,67c-5.9,0-11.6,0-17.4,0c0,2.8,0,5.6,0,8.4c5.8,0,11.6,0,17.4,0C58.7,72.6,58.7,69.9,58.7,67z"/>
	<path class="st1" d="M49.9,80.5c-0.8,0-1.6,0.1-2.4,0c-0.3,0-0.6-0.4-0.9-0.6c0.3-0.2,0.5-0.6,0.8-0.6c1.7-0.1,3.4-0.1,5.1,0
		c0.3,0,0.5,0.4,0.8,0.6c-0.3,0.2-0.5,0.6-0.8,0.6C51.7,80.5,50.8,80.5,49.9,80.5z"/>
	<path class="st1" d="M72.4,65.4c-0.5-0.7-1-1-1-1.4c0-0.3,0.6-0.9,0.8-0.9c0.4,0,1,0.5,1,0.8C73.3,64.3,72.8,64.7,72.4,65.4z"/>
	<path class="st1" d="M41.5,20.1c0.4,0.7,0.9,1.1,0.9,1.5c0,0.3-0.6,0.9-0.9,0.8c-0.4-0.1-0.9-0.6-1-0.9
		C40.5,21.1,41,20.7,41.5,20.1z"/>
	<path class="st1" d="M72.3,30.1c0.5,0.7,1,1.1,1,1.4c0,0.4-0.6,0.9-1,0.9c-0.3,0-0.9-0.5-0.9-0.9C71.4,31.2,71.8,30.8,72.3,30.1z"
		/>
	<path class="st1" d="M77.7,46.3c0.4,0.7,0.9,1.2,0.9,1.5c-0.1,0.4-0.6,0.8-1,0.8c-0.3,0-0.8-0.6-0.8-0.9
		C76.7,47.4,77.2,47,77.7,46.3z"/>
	<path class="st1" d="M29,31.5c-0.7,0.5-1,1-1.4,1c-0.3,0-0.9-0.6-0.9-0.9c0.1-0.4,0.5-0.9,0.9-1C27.9,30.5,28.4,31,29,31.5z"/>
	<path class="st1" d="M23.8,47.8c-0.7,0.4-1.1,0.9-1.5,0.9c-0.3,0-0.9-0.7-0.8-0.9c0.1-0.4,0.6-0.8,1-0.9
		C22.7,46.8,23.1,47.3,23.8,47.8z"/>
	<path class="st1" d="M27.6,65.5c-0.4-0.7-0.9-1.2-0.9-1.5c0.1-0.4,0.6-0.8,1-0.9c0.2,0,0.8,0.6,0.8,0.9
		C28.5,64.4,28.1,64.8,27.6,65.5z"/>
	<path class="st1" d="M58.5,20.1c0.5,0.6,1,1,1,1.3c-0.1,0.4-0.5,0.9-0.9,1c-0.2,0.1-0.9-0.5-0.9-0.8C57.6,21.2,58,20.8,58.5,20.1z"
		/>
	<path class="st1" d="M60.8,47c0,0.2,0.1,0.4,0,0.6c-0.1,0.3-0.3,0.5-0.5,0.7c-0.2-0.2-0.6-0.5-0.7-0.7c-0.2-0.8-0.2-1.6-0.4-2.4
		c-1-3.9-4.4-6.7-8.5-7c-0.5,0-1.4,0.2-1.3-0.8c0-0.2,1-0.5,1.5-0.5C56.5,37.6,60.6,41.8,60.8,47z"/>
	<path class="st1" d="M48.8,71.4c0,0.5,0.1,0.9,0,1.4c0,0.2-0.4,0.6-0.5,0.6c-0.3-0.1-0.6-0.4-0.7-0.6c-0.1-0.9-0.1-1.8,0-2.7
		c0-0.2,0.4-0.5,0.6-0.7c0.2,0.2,0.5,0.4,0.6,0.7C48.9,70.4,48.8,70.9,48.8,71.4L48.8,71.4z"/>
	<path class="st1" d="M45.2,71.4c0,0.4,0.1,0.9,0,1.2c-0.1,0.3-0.4,0.5-0.6,0.7c-0.2-0.2-0.6-0.4-0.6-0.7c-0.1-0.9-0.1-1.8,0-2.7
		c0-0.2,0.3-0.4,0.5-0.6c0.2,0.2,0.6,0.4,0.7,0.6C45.3,70.4,45.2,70.9,45.2,71.4L45.2,71.4z"/>
	<path class="st1" d="M52.4,71.3c0,0.4,0.1,0.9,0,1.2c-0.1,0.3-0.4,0.6-0.6,0.8c-0.2-0.3-0.6-0.5-0.6-0.8c-0.1-0.8-0.1-1.7,0-2.5
		c0-0.3,0.4-0.5,0.6-0.8c0.2,0.3,0.5,0.5,0.6,0.8C52.5,70.5,52.4,70.9,52.4,71.3z"/>
	<path class="st1" d="M56,71.3c0,0.5,0.1,0.9,0,1.4c-0.1,0.3-0.4,0.5-0.6,0.7c-0.2-0.2-0.6-0.5-0.6-0.7c-0.1-0.9-0.1-1.8,0-2.7
		c0-0.2,0.4-0.4,0.6-0.6c0.2,0.2,0.5,0.4,0.5,0.6C56.1,70.4,56,70.9,56,71.3L56,71.3z"/>
</g>
</svg>
