<?xml version="1.0" encoding="utf-8"?>
<!-- Generator: Adobe Illustrator 26.2.1, SVG Export Plug-In . SVG Version: 6.00 Build 0)  -->
<svg version="1.1" id="Layer_1" xmlns="http://www.w3.org/2000/svg" xmlns:xlink="http://www.w3.org/1999/xlink" x="0px" y="0px"
	 viewBox="0 0 100 100" style="enable-background:new 0 0 100 100;" xml:space="preserve">
<style type="text/css">
	.st0{fill:#4DA8DA;}
	.st1{fill:#FFFFFF;}
	.st2{fill:#12232E;}
</style>
<g>
	<circle class="st0" cx="49.7" cy="50.1" r="50"/>
</g>
<path class="st1" d="M54.8,47.1c1.8,0.2,3.9,0.4,6,0.7c8.3,1,16.1,3.4,22.8,8.5c2.9,2.2,5.4,5,8,7.6c1.4,1.3,1.1,2.8-0.1,4
	c-3.4,3.4-6.8,6.7-10.2,10c-1.3,1.3-2.8,1.2-4.1-0.1c-3.3-3.1-6.7-6-9.6-9.4c-1-1.3-0.6-3.8-0.7-5.7c0-1.5,0.1-3,0.3-4.5
	c0.3-2.2-0.9-3.1-2.6-3.5c-6.6-1.4-13.3-1.8-20-1.3c-2.9,0.2-5.7,0.6-8.5,1.1c-3.3,0.6-3.6,1.2-3.4,4.5c0.2,2.4,0.4,4.7,0.5,7.1
	c0,0.8-0.3,1.7-0.8,2.2c-3.1,3.1-6.3,6.2-9.5,9.2c-1.7,1.6-3.1,1.6-4.7,0c-3.2-3.1-6.3-6.2-9.4-9.3c-1.8-1.8-1.6-2.9,0-4.9
	c7.5-9,17.5-13.3,28.8-15.1c2.6-0.4,5.3-0.7,8.3-1.1"/>
<path class="st2" d="M45.8,47c-6.3-6.2-12.3-12.1-18.3-18c2.1-2.1,3.8-3.9,5.6-5.7c5.6,5.6,11.1,11.2,16.6,16.7
	c4.4-4.4,8.5-8.5,13-13c-2-1.8-4-3.6-6.3-5.7c6.2,0,11.8,0,17.5,0c0,5.6,0,11.2,0,16.8c-0.1,0.1-0.3,0.2-0.4,0.3
	c-1.6-1.9-3.1-3.9-4.6-5.8c-5.1,5.2-9.6,9.8-14.1,14.4"/>
</svg>
