<?xml version="1.0" encoding="utf-8"?>
<!-- Generator: Adobe Illustrator 26.2.1, SVG Export Plug-In . SVG Version: 6.00 Build 0)  -->
<svg version="1.1" id="Layer_1" xmlns="http://www.w3.org/2000/svg" xmlns:xlink="http://www.w3.org/1999/xlink" x="0px" y="0px"
	 viewBox="0 0 100 100" style="enable-background:new 0 0 100 100;" xml:space="preserve">
<style type="text/css">
	.st0{fill:#4DA8DA;}
	.st1{fill:#FFFFFF;}
</style>
<g>
	<circle class="st0" cx="49.7" cy="50.1" r="50"/>
</g>
<g>
	<path class="st1" d="M52.7,49.2c0.6,0.4,1,0.8,1.5,1.1c5.1-3.1,10.3-6.2,15.4-9.2c-0.6-4.5,0.3-6.8,3.3-7.8
		c2.4-0.9,5.2,0.2,6.4,2.5c1.3,2.3,0.7,5.1-1.4,6.8c-2.3,1.8-4.9,1.5-7.8-1c-5,3-10,6-15,9.1c-0.4,0.2-0.6,1.1-0.6,1.6
		c0.1,2,0.4,4,0.5,6c0,0.5-0.5,1.1-0.7,1.6c-0.4-0.5-1-1-1.1-1.5c-0.3-1.1-0.3-2.4-0.5-3.5c-0.2,0-0.3,0-0.5,0
		c0.1,1.9,0.4,3.8,0.3,5.7c0,2.4,0.9,3.8,3.1,5c3.6,1.9,7,4.1,10.8,6.4c-1.4,0.9-2.5,1.5-3.7,2.2c-3.9,2.3-7.7,4.7-11.7,7
		c-0.5,0.3-1.5,0.4-1.9,0.2c-4.9-2.9-9.8-5.8-14.6-8.7c-0.2-0.1-0.3-0.3-0.7-0.7c1-0.6,1.9-1.2,2.8-1.8c3.1-1.9,6.2-3.7,9.3-5.6
		c0.5-0.3,1.2-0.9,1.3-1.4c0.3-3,0.5-5.9,0.7-8.9c-0.2,0-0.3,0-0.5-0.1c-0.1,1.2-0.2,2.5-0.5,3.7c-0.2,0.7-0.7,1.3-1.1,2
		c-0.3-0.7-0.8-1.4-0.8-2.1c0-1.9,0.4-3.8,0.4-5.7c0-0.5-0.3-1.4-0.8-1.6c-5-3.1-10.1-6.1-15.2-9.2c-3.6,2.4-5.9,2.5-7.9,0.5
		c-1.7-1.7-1.9-4.4-0.6-6.4c1.3-1.9,3.8-2.7,6-1.8c2.6,1.1,3.5,3.3,2.8,7c5.2,3.1,10.5,6.3,15.9,9.5c0.5-0.3,1-0.7,1.6-1.1
		c-2.3-4.3-4.6-8.7-7-12.9c-0.2-0.4-1.3-0.5-2-0.5c-2.5,0.1-4.7-1.5-5.2-3.8c-0.6-2.6,0.7-5,3.1-5.9c2.3-0.9,4.8,0,6.1,2.1
		c1.4,2.2,0.9,4.4-1.5,7c2.4,4.5,4.8,9,7.2,13.5c0.2,0.4,0.9,0.5,1.5,0.9c-0.6-1.3-1.4-2.3-1.4-3.3c0-0.9,1-1.8,1.4-2.7
		c0.2-0.4,0.2-0.9,0.2-1.4c0-4,0-8.1,0-12.1c0-0.9-0.1-1.5-1.2-1.8c-2.6-0.8-3.8-3.2-3.3-5.8c0.4-2.2,2.5-4,4.9-4s4.5,1.7,5,4.1
		s-0.9,4.9-3.3,5.6c-1.2,0.4-1.3,1-1.3,2c0,3.9,0,7.8,0.1,11.7c0,0.7,0.4,1.6,0.9,2.2c1.3,1.5,1.1,3.1-0.4,5.5
		c0.5-0.4,1.2-0.7,1.6-1.2c2.6-4.2,5.1-8.5,7.7-12.8c-1.5-1.5-2.5-3.2-1.9-5.4c0.7-2.7,3.3-4.4,6-3.7c2.6,0.6,4.4,3.2,3.8,5.8
		c-0.6,2.8-3.1,4.6-5.9,4C61.2,36,60.6,36,60,37C57.7,41,55.2,45,52.7,49.2z M46.9,64.9c-4.1,2.5-7.9,4.8-12,7.2
		c4.9,3,9.6,5.8,14.3,8.5c0.5,0.3,1.4,0.1,2-0.2c3.5-2,7-4.2,10.6-6.3c1-0.6,2-1.2,3.2-2c-4.1-2.5-7.9-4.7-12-7.2
		c0.2,2.1,0.5,3.9,0.5,5.7c0,0.6-0.7,1.2-1.1,1.8c-0.5-0.5-1.2-1-1.3-1.6c-0.3-1.9-0.3-3.9-0.5-5.8c-0.1-0.6-0.3-1.1-0.4-1.7
		c-0.2,0-0.3,0.1-0.5,0.1c-0.2,2.5-0.4,5-0.7,7.4c-0.1,0.6-0.8,1.1-1.3,1.7c-0.4-0.7-1.1-1.3-1.1-2C46.5,68.7,46.8,67,46.9,64.9z"/>
</g>
</svg>
