<?xml version="1.0" encoding="utf-8"?>
<!-- Generator: Adobe Illustrator 26.2.1, SVG Export Plug-In . SVG Version: 6.00 Build 0)  -->
<svg version="1.1" id="Layer_1" xmlns="http://www.w3.org/2000/svg" xmlns:xlink="http://www.w3.org/1999/xlink" x="0px" y="0px"
	 viewBox="0 0 100 100" style="enable-background:new 0 0 100 100;" xml:space="preserve">
<style type="text/css">
	.st0{fill:#4DA8DA;}
	.st1{fill:#FFFFFF;}
	.st2{fill:#12232E;}
</style>
<g>
	<circle class="st0" cx="49.7" cy="50.1" r="50"/>
</g>
<path class="st1" d="M28.5,89.6c-1-0.1-1.6-0.6-2.1-1.4c-2.5-4.4-5-8.7-7.5-13.1c-2.7-4.7-5.5-9.5-8.2-14.2c-1.1-1.9-0.9-2.9,1.1-4
	c7.7-4.4,15.4-8.8,23-13.2c7.4-4.3,14.7-8.5,22.1-12.8c3.2-1.8,6.4-3.7,9.5-5.5c1.3-0.7,2.4-0.4,3.2,0.9c1,1.7,2,3.5,3,5.3
	c4.4,7.4,8.7,14.9,13,22.3c0.9,1.5,0.6,2.6-1,3.5c-6.5,3.7-12.9,7.5-19.4,11.2c-6.3,3.6-12.6,7.3-18.9,10.9
	c-5.5,3.2-11.1,6.4-16.6,9.5C29.4,89.3,28.9,89.4,28.5,89.6z M60.2,61.3c-0.1-2.9-0.8-5.6-2.1-8.2c-2.1-4.2-5.1-7.5-9.6-9.2
	c-5.9-2.2-11.2,0.8-12.3,7.1c-0.8,4.7,0.5,8.9,3.1,12.8c2.3,3.4,5.2,6,9.2,7.1c5,1.4,9.4-0.9,10.9-5.8C59.9,63.9,60,62.6,60.2,61.3z
	 M72.4,35.4c-1.6-2.8-3.2-5.5-4.8-8.2c-2.8,1.6-5.5,3.2-8.3,4.8C61.7,36.4,68.3,38.2,72.4,35.4z M36.7,82.6c-2.6-4.7-9-6.2-13-3.4
	c1.6,2.7,3.2,5.5,4.8,8.2C31.3,85.7,34,84.2,36.7,82.6z M20.4,54.4c-2.7,1.6-5.4,3.2-8.2,4.8c1.6,2.8,3.2,5.5,4.8,8.3
	C21.8,64.8,23,58.4,20.4,54.4z M75.7,60.1c2.8-1.6,5.5-3.2,8.2-4.8c-1.6-2.7-3.1-5.4-4.7-8.1c0-0.1-0.1-0.1-0.1-0.2
	C74.4,49.6,73.1,56.3,75.7,60.1z M29.8,62.6c-2.7,0-4.8,2-4.8,4.6s2.1,4.7,4.7,4.7s4.7-2,4.7-4.6S32.4,62.6,29.8,62.6z M70.5,46.3
	c0-2.6-2.1-4.6-4.7-4.6s-4.7,2-4.6,4.7c0,2.6,2.1,4.6,4.7,4.6S70.5,48.9,70.5,46.3z"/>
<path class="st1" d="M75.2,21.5c0.4-0.2,0.7-0.4,1.1-0.6c-1.6-2.8-3.2-5.5-4.8-8.3c-2.8,1.6-5.5,3.2-8.3,4.8
	c0.2,0.4,0.4,0.7,0.7,1.1C51,25.9,38,33.4,25,40.9c-0.2-0.4-0.4-0.7-0.7-1.1c-2.7,1.6-5.5,3.2-8.2,4.8c0.2,0.4,0.4,0.7,0.6,1.1
	c-0.6,0.4-1.2,0.7-1.8,1.1c-0.3-0.5-0.6-1-0.8-1.5c-0.4-1,0-2.1,1.1-2.8c3.3-1.9,6.5-3.8,9.8-5.7c6.4-3.7,12.8-7.4,19.2-11.1
	c8.2-4.7,16.5-9.5,24.7-14.2c0.4-0.2,0.9-0.5,1.3-0.7c1.3-0.8,2.5-0.5,3.3,0.8c1.5,2.6,3,5.2,4.5,7.8c3.8,6.5,7.5,13,11.3,19.5
	c1.2,2.1,0.8,3.3-1.5,4.2c-0.3-0.6-0.7-1.1-1.1-1.8c0.4-0.2,0.7-0.5,1.1-0.7c-1.6-2.8-3.2-5.5-4.8-8.3c-0.4,0.2-0.7,0.4-1.1,0.7
	C79.7,29.2,77.5,25.4,75.2,21.5z"/>
<path class="st1" d="M85.8,50.5c-0.3-0.6-0.7-1.2-1-1.8c0.4-0.2,0.7-0.5,1.1-0.7c-1.6-2.7-3.2-5.5-4.8-8.2c-0.4,0.2-0.7,0.4-1.1,0.6
	c-2.3-3.9-4.5-7.7-6.8-11.6c0.4-0.2,0.7-0.4,1.1-0.7c-1.6-2.8-3.1-5.5-4.7-8.3c-2.8,1.6-5.6,3.2-8.3,4.8c0.2,0.4,0.4,0.7,0.7,1.1
	c-13,7.5-26,15-39,22.5c-0.2-0.3-0.4-0.7-0.6-1.1c-2.8,1.6-5.5,3.2-8.3,4.8c0.2,0.4,0.4,0.7,0.6,1.2c-0.6,0.3-1.2,0.7-1.7,1
	c-1.6-1.6-1.4-3.3,0.6-4.4c8.1-4.7,16.2-9.3,24.3-14c7.1-4.1,14.2-8.2,21.3-12.3c3-1.8,6.1-3.5,9.1-5.2c1.4-0.8,2.5-0.5,3.3,0.9
	c4.1,7.1,8.2,14.2,12.3,21.3c1.1,2,2.2,4,3.4,5.9C88.8,48.4,87.8,49.8,85.8,50.5z"/>
<path class="st0" d="M60.2,61.3c-0.2,1.3-0.4,2.6-0.7,3.8c-1.5,4.9-5.9,7.2-10.9,5.8c-4-1.1-6.9-3.7-9.2-7.1
	c-2.6-3.9-3.9-8.1-3.1-12.8c1-6.2,6.3-9.3,12.3-7.1c4.5,1.7,7.5,5,9.6,9.2C59.4,55.7,60.1,58.4,60.2,61.3z M50.9,56.1
	c0-0.1,0.1-0.2,0.1-0.4c0.8-3.3-1.2-7.1-4.4-8.2c-2.8-1-5.3,0.2-6.3,3c-1.2,3.4,1.2,7.8,4.7,8.6c0.2,0,0.4,0.1,0.4,0.1
	c-1,1.4-2,2.7-3,4.1c-0.4,0.5-0.3,0.9,0.2,1.4c1.5,1.7,3.4,2.9,5.4,3.9c0.3,0.1,0.7,0.1,1-0.1c2.7-1.5,5.4-3,8.1-4.6
	c0.3-0.2,0.6-0.7,0.7-1.1c0.4-2.2,0-4.4-0.6-6.5c-0.2-0.5-0.4-0.8-1-0.7C54.5,55.7,52.7,55.9,50.9,56.1z"/>
<path class="st0" d="M72.4,35.4c-4.1,2.8-10.8,1-13-3.5c2.7-1.6,5.5-3.2,8.3-4.8C69.3,29.9,70.8,32.6,72.4,35.4z"/>
<path class="st0" d="M36.7,82.6c-2.7,1.6-5.5,3.2-8.3,4.8c-1.6-2.8-3.2-5.5-4.8-8.2C27.7,76.4,34.2,77.9,36.7,82.6z"/>
<path class="st0" d="M20.4,54.4c2.7,4,1.4,10.4-3.4,13c-1.6-2.7-3.2-5.5-4.8-8.3C14.9,57.6,17.6,56,20.4,54.4z"/>
<path class="st0" d="M75.7,60.1c-2.7-3.9-1.3-10.5,3.4-13c0,0,0.1,0.1,0.1,0.2c1.5,2.7,3.1,5.3,4.7,8.1
	C81.2,56.9,78.5,58.5,75.7,60.1z"/>
<path class="st0" d="M29.8,62.6c2.6,0,4.6,2.1,4.5,4.7c0,2.6-2.1,4.6-4.7,4.6s-4.7-2.1-4.7-4.7C25,64.6,27.2,62.5,29.8,62.6z"/>
<path class="st0" d="M70.5,46.3c0,2.6-2,4.7-4.6,4.7s-4.7-2-4.7-4.6s2-4.7,4.6-4.7C68.4,41.7,70.5,43.7,70.5,46.3z"/>
<path class="st2" d="M50.9,56.1c1.8-0.2,3.5-0.4,5.3-0.6c0.6-0.1,0.8,0.2,1,0.7c0.6,2.1,1,4.3,0.6,6.5c-0.1,0.4-0.3,0.9-0.7,1.1
	c-2.7,1.6-5.4,3.1-8.1,4.6c-0.3,0.1-0.7,0.2-1,0.1c-2-1-3.9-2.2-5.4-3.9c-0.4-0.5-0.5-0.8-0.2-1.4c1-1.4,2-2.7,3-4.1
	c0,0-0.2-0.1-0.4-0.1c-3.5-0.8-5.9-5.2-4.7-8.6c1-2.7,3.5-3.9,6.3-3c3.2,1.1,5.3,4.9,4.4,8.2C51,55.9,51,56,50.9,56.1z"/>
</svg>
