<?xml version="1.0" encoding="utf-8"?>
<!-- Generator: Adobe Illustrator 26.2.1, SVG Export Plug-In . SVG Version: 6.00 Build 0)  -->
<svg version="1.1" id="Layer_1" xmlns="http://www.w3.org/2000/svg" xmlns:xlink="http://www.w3.org/1999/xlink" x="0px" y="0px"
	 viewBox="0 0 100 100" style="enable-background:new 0 0 100 100;" xml:space="preserve">
<style type="text/css">
	.st0{fill:#4DA8DA;}
	.st1{fill:#FFFFFF;}
</style>
<circle class="st0" cx="50" cy="50" r="50"/>
<path class="st1" d="M5.5,59.3c-0.9,6.5,4.4,12.2,10.9,11.8l68.3-4c5-0.3,9-4.1,9.7-9c0.9-6.5-4.4-12.2-10.9-11.8l-23.1,1.3
	c1.2-2,1.9-4.4,1.8-6.9C62,34.2,56.6,29,50,28.9c-6.9-0.1-12.6,5.5-12.6,12.4c0,2.9,1,5.5,2.6,7.6l-24.8,1.4
	C10.3,50.6,6.2,54.4,5.5,59.3"/>
<path class="st1" d="M5.1,59.2c0.7-5.1,5-9.1,10.1-9.4l24-1.4c-1.5-2.1-2.2-4.6-2.2-7.2c0-3.5,1.4-6.7,3.8-9.1
	c2.5-2.4,5.7-3.7,9.2-3.7c3.3,0,6.4,1.3,8.8,3.6c2.4,2.3,3.7,5.4,3.9,8.7c0.1,2.3-0.4,4.5-1.4,6.5l22.3-1.3c3.3-0.2,6.4,1.1,8.6,3.5
	s3.2,5.6,2.8,8.8c-0.7,5.1-5,9.1-10.1,9.4l-68.3,4"/>
<path class="st1" d="M15.9,71.6c-3,0-5.9-1.2-8-3.5c-2.2-2.4-3.2-5.6-2.8-8.8"/>
<path class="st1" d="M16.4,70.7l68.3-4c4.8-0.3,8.7-3.9,9.3-8.6c0.4-3-0.5-5.9-2.6-8.1c-2-2.2-4.9-3.4-7.9-3.2l-23.9,1.4l0.4-0.7
	c1.2-2,1.8-4.3,1.7-6.7c-0.3-6.3-5.4-11.4-11.8-11.5c-0.1,0-0.1,0-0.2,0c-3.2,0-6.1,1.2-8.4,3.4C39,35,37.7,38,37.7,41.2
	c0,2.7,0.9,5.2,2.5,7.3l0.5,0.7l-25.6,1.5C10.5,51,6.6,54.6,6,59.4"/>
<path class="st1" d="M6,59.4c-0.4,3,0.5,5.9,2.6,8.1c2,2.2,4.9,3.4,7.9,3.2"/>
<g>
	<ellipse class="st0" cx="49.9" cy="41.2" rx="10" ry="10"/>
</g>
<g>
	<g>
		<g>
			<g>
				<g>
					<path class="st1" d="M54.9,42.5c-0.1,0.1-0.1,0.2,0,0.3c0.2,0.2,0.2,0.7-0.2,1.1c-0.1,0.1-0.2,0.3-0.2,0.4
						c0.1,0.4,0.1,1.1-0.6,1.3l-3.8,0.2c-0.6,0-1.2-0.1-1.7-0.3c-0.2-0.1-0.4-0.2-0.8-0.2c-0.1,0-0.3-0.1-0.3-0.2v-3.9
						c0-0.1,0.1-0.3,0.3-0.3l0,0c0.3,0,0.7-0.3,0.9-0.7s0.4-0.9,0.6-1.5c0.1-0.3,0.1-0.3,0.4-0.6l0,0l0.1-0.1
						c0.5-0.5,0.7-0.8,0.9-1.4c0.1-0.3,0.1-0.5,0.2-0.8l0,0l0,0c0.1-0.3,0.4-0.4,0.7-0.4l0,0c0.1,0,0.2,0.1,0.2,0.1
						c0.4,0.3,0.7,0.9-0.1,2.5c0,0-0.2,0.6-0.2,1c0,0.2,0.2,0.3,0.4,0.3l2.1-0.1c0.4,0,0.8,0.2,1,0.5c0.1,0.1,0.1,0.2,0.1,0.3
						s0,0.2,0,0.3c0,0.2-0.1,0.5-0.3,0.7c-0.1,0.1-0.1,0.2,0,0.3C55.1,41.5,55.4,42,54.9,42.5z"/>
				</g>
			</g>
			<g>
				<g>
					<path class="st1" d="M46.8,40.8L44.4,41c0,0-0.1,0-0.1,0.1v4.5c0,0,0,0.1,0.1,0.1l2.4-0.1c0,0,0.1,0,0.1-0.1L46.8,40.8
						C46.9,40.9,46.8,40.8,46.8,40.8z"/>
				</g>
			</g>
		</g>
	</g>
</g>
<g>
	<g>
		<g>
			<path class="st0" d="M18.5,63.9l-3.2,1.9c-0.1,0.1-0.2,0-0.2-0.1l0.6-3.6V62l-2.6-2.4c-0.1-0.1,0-0.2,0.1-0.2l3.6-0.7
				c0,0,0.1,0,0.1-0.1l1.6-3.4c0-0.1,0.2-0.1,0.2,0l1.6,3.2l0.1,0.1l3.6,0.3c0.1,0,0.1,0.1,0.1,0.2l-2.6,2.7v0.1l0.6,3.6
				c0,0.1-0.1,0.2-0.2,0.1L18.7,64C18.6,63.9,18.5,63.9,18.5,63.9z"/>
		</g>
		<g>
			<path class="st0" d="M34.2,63.1L31,64.9c-0.1,0.1-0.2,0-0.2-0.1l0.6-3.6v-0.1l-2.6-2.4c-0.1-0.1,0-0.2,0.1-0.2l3.6-0.7
				c0,0,0.1,0,0.1-0.1l1.6-3.4c0-0.1,0.2-0.1,0.2,0l1.6,3.2l0.1,0.1l3.6,0.3c0.1,0,0.1,0.1,0.1,0.2l-2.6,2.7v0.1l0.6,3.6
				c0,0.1-0.1,0.2-0.2,0.1L34.2,63.1C34.3,63,34.3,63,34.2,63.1z"/>
		</g>
		<g>
			<path class="st0" d="M50,62.2l-3.2,1.9c-0.1,0.1-0.2,0-0.2-0.1l0.6-3.6v-0.1l-2.6-2.4c-0.1-0.1,0-0.2,0.1-0.2l3.6-0.7
				c0,0,0.1,0,0.1-0.1l1.6-3.4c0-0.1,0.2-0.1,0.2,0l1.6,3.2l0.1,0.1l3.6,0.3c0.1,0,0.1,0.1,0.1,0.2L53,60v0.1l0.6,3.6
				c0,0.1-0.1,0.2-0.2,0.1l-3.2-1.5C50,62.2,50,62.2,50,62.2z"/>
		</g>
		<g>
			<path class="st0" d="M65.7,61.3l-3.2,1.9c-0.1,0.1-0.2,0-0.2-0.1l0.6-3.6v-0.1L60.3,57c-0.1-0.1,0-0.2,0.1-0.2l3.6-0.7
				c0,0,0.1,0,0.1-0.1l1.6-3.4c0-0.1,0.2-0.1,0.2,0l1.6,3.2l0.1,0.1l3.6,0.3c0.1,0,0.1,0.1,0.1,0.2L68.6,59v0.1l0.6,3.6
				c0,0.1-0.1,0.2-0.2,0.1l-3.2-1.5C65.8,61.3,65.7,61.3,65.7,61.3z"/>
		</g>
		<g>
			<path class="st0" d="M81.4,60.4l-3.2,1.9c-0.1,0.1-0.2,0-0.2-0.1l0.6-3.6v-0.1L76,56.1c-0.1-0.1,0-0.2,0.1-0.2l3.6-0.7
				c0,0,0.1,0,0.1-0.1l1.6-3.4c0-0.1,0.2-0.1,0.2,0l1.6,3.2l0.1,0.1l3.6,0.3c0.1,0,0.1,0.1,0.1,0.2l-2.6,2.7v0.1l0.6,3.6
				c0,0.1-0.1,0.2-0.2,0.1l-3.2-1.5C81.5,60.4,81.4,60.4,81.4,60.4z"/>
		</g>
	</g>
</g>
</svg>
