<?xml version="1.0" encoding="utf-8"?>
<!-- Generator: Adobe Illustrator 26.2.1, SVG Export Plug-In . SVG Version: 6.00 Build 0)  -->
<svg version="1.1" id="Layer_1" xmlns="http://www.w3.org/2000/svg" xmlns:xlink="http://www.w3.org/1999/xlink" x="0px" y="0px"
	 viewBox="0 0 100 100" style="enable-background:new 0 0 100 100;" xml:space="preserve">
<style type="text/css">
	.st0{fill:#4DA8DA;}
	.st1{fill:#FFFFFF;}
</style>
<g>
	<circle class="st0" cx="49.7" cy="50.1" r="50"/>
</g>
<path class="st1" d="M84.7,34.9c-1.4,0-2.8-0.1-4.3,0c-0.9,0-1.3-0.3-1.6-1.1C73.3,20.2,58.9,12.2,44.5,15
	c-11.2,2.1-19,8.6-23.4,19.1c-0.3,0.7-0.6,0.9-1.3,0.9c-1.5-0.1-2.9,0-4.4,0c-3.2,0.1-5.4,2.3-5.4,5.5c0,3.4,0,6.9,0,10.3
	c0,3.3,2.2,5.5,5.4,5.6c2,0,4.1,0,6.1,0c1.9,0,2.6-0.9,2-2.8c-1.2-3.9-1.4-8-0.8-12c2.1-14.5,15.6-24.9,30.1-23.3
	C66.5,19.7,76.6,30.4,77.5,44c0.9,13.3-8.5,25.8-21.6,28.4c-3.9,0.8-8.1,0.7-12.1,1c0-0.1,0-0.2,0-0.3c-2.4,0-4.9,0-7.3,0
	c-3.4,0.1-6,2.8-6,6.2c0,3.3,2.6,6.1,5.9,6.2c3.2,0.1,6.4,0.1,9.6,0c3.1-0.1,5.5-2.4,5.8-5.5c0.1-0.7,0.1-1.5,0.1-2.2
	c-0.1-0.9,0.2-1.2,1.1-1.3c1.4-0.1,2.7-0.3,4.1-0.6c10.4-2.5,17.7-8.8,21.8-18.6c0.3-0.8,0.7-1.1,1.6-1c1.5,0.1,2.9,0,4.4,0
	c3-0.1,5.2-2.3,5.2-5.3c0-3.5,0-7.1,0-10.6C89.9,37.2,87.7,35,84.7,34.9z"/>
<path class="st1" d="M33.9,63.9c0.1,0.1,0.2,0.2,0.3,0.4c0.3,0,0.7,0,1,0c4.8,0,9.5,0,14.3,0c1.3,0,2.7-0.1,4-0.3
	c10.1-1.8,16.9-11.9,14.8-21.9c-2.1-10.4-12.2-17-22.4-14.7c-14.2,3.3-19.4,20.3-9.5,31c1.2,1.3,1.2,2.1,0,3.3
	C35.6,62.5,34.7,63.2,33.9,63.9z M58.9,43.8c1,0,1.7,0.7,1.7,1.7s-0.8,1.8-1.8,1.8S57,46.4,57,45.4C57.2,44.6,58,43.8,58.9,43.8z
	 M49.9,43.8c1-0.1,1.8,0.7,1.9,1.7c0,1-0.8,1.8-1.8,1.8c-0.9,0-1.7-0.8-1.7-1.7C48.2,44.6,48.9,43.9,49.9,43.8z M41.1,43.8
	c0.9,0,1.7,0.8,1.8,1.7c0,1-0.8,1.8-1.8,1.8s-1.8-0.9-1.7-1.8C39.4,44.5,40.2,43.8,41.1,43.8z"/>
<path class="st0" d="M41.1,47.3c1,0,1.8-0.9,1.8-1.8c0-0.9-0.8-1.7-1.8-1.7s-1.7,0.7-1.8,1.7C39.3,46.5,40.1,47.3,41.1,47.3z"/>
<path class="st0" d="M58.9,47.3c1,0,1.8-0.8,1.8-1.8s-0.8-1.7-1.7-1.7c-1,0-1.7,0.7-1.8,1.7C57.1,46.4,57.9,47.3,58.9,47.3z"/>
<path class="st0" d="M50,47.3c1,0,1.8-0.8,1.8-1.8s-0.8-1.7-1.9-1.7c-1,0.1-1.7,0.8-1.6,1.8C48.3,46.5,49.1,47.3,50,47.3z"/>
</svg>
