<?xml version="1.0" encoding="utf-8"?>
<!-- Generator: Adobe Illustrator 26.4.1, SVG Export Plug-In . SVG Version: 6.00 Build 0)  -->
<svg version="1.0" id="Layer_1" xmlns="http://www.w3.org/2000/svg" xmlns:xlink="http://www.w3.org/1999/xlink" x="0px" y="0px"
	 viewBox="0 0 300 173" enable-background="new 0 0 300 173" xml:space="preserve">
<path fill="#FFFFFF" d="M299,21.71L280.12,2.83L149.5,133.46L18.88,2.83L0,21.71l130.62,130.62v0.01l18.87,18.88l0.01-0.01
	l0.01,0.01l18.87-18.88v-0.01L299,21.71z"/>
<path d="M280.12,4.34l17.37,17.37L167.62,151.58l-0.75,0.76l-17.38,17.38l-0.01-0.01l-17.37-17.37l0.01-0.01l-0.75-0.75L1.51,21.71
	L18.88,4.34l129.87,129.87l0.76,0.76l0.76-0.76L280.12,4.34 M280.12,2.83L149.5,133.46L18.88,2.83L0,21.71l130.62,130.62l-0.01,0.01
	l18.88,18.88l0.01-0.01l0.01,0.01l18.88-18.88l-0.01-0.01L299,21.71C299,21.71,280.12,2.83,280.12,2.83z"/>
</svg>
