<svg xmlns="http://www.w3.org/2000/svg" xmlns:xlink="http://www.w3.org/1999/xlink" width="100" zoomAndPan="magnify" viewBox="0 0 75 74.999997" height="100" preserveAspectRatio="xMidYMid meet" version="1.0"><defs><clipPath id="id1"><path d="M 0 15 L 75 15 L 75 60.609375 L 0 60.609375 Z M 0 15 " clip-rule="nonzero"/></clipPath></defs><g clip-path="url(#id1)"><path fill="#040606" d="M 72.636719 28.808594 C 74.15625 27.296875 75 25.285156 75 23.140625 C 75 21 74.15625 18.992188 72.636719 17.476562 C 69.492188 14.351562 64.375 14.351562 61.226562 17.472656 L 38.445312 40.066406 C 37.921875 40.585938 37.078125 40.585938 36.554688 40.066406 L 13.773438 17.472656 C 10.628906 14.351562 5.507812 14.351562 2.363281 17.476562 C 0.835938 18.992188 0 21 0 23.140625 C 0 25.285156 0.835938 27.296875 2.363281 28.808594 L 31.792969 58.035156 C 33.320312 59.550781 35.34375 60.390625 37.5 60.390625 C 39.65625 60.390625 41.679688 59.550781 43.203125 58.035156 L 72.636719 28.808594 " fill-opacity="1" fill-rule="nonzero"/></g></svg>